<svg xmlns="http://www.w3.org/2000/svg" viewBox="0 0 156 234" width="156" height="234" shape-rendering="crispEdges"><rect width="156" height="234" fill="#e7dfcd"/><rect x="0.5" y="0.5" width="155" height="233" fill="none" stroke="#c9bfa6" stroke-width="1"/><rect x="14" y="28.6" width="4" height="0.6" fill="#141210" opacity="0.20"/><text x="14" y="27.5" textLength="4" lengthAdjust="spacingAndGlyphs" font-family="ui-monospace,monospace" font-size="10" fill="#141210">t</text><rect x="18" y="28.6" width="4" height="0.6" fill="#141210" opacity="0.20"/><text x="18" y="27.5" textLength="4" lengthAdjust="spacingAndGlyphs" font-family="ui-monospace,monospace" font-size="10" fill="#141210">h</text><rect x="22" y="28.6" width="4" height="0.6" fill="#141210" opacity="0.20"/><text x="22" y="27.5" textLength="4" lengthAdjust="spacingAndGlyphs" font-family="ui-monospace,monospace" font-size="10" fill="#141210">e</text><rect x="26.60" y="20" width="2.80" height="8" fill="#d8cfba"/><rect x="30" y="28.6" width="4" height="0.6" fill="#141210" opacity="0.20"/><text x="30" y="27.5" textLength="4" lengthAdjust="spacingAndGlyphs" font-family="ui-monospace,monospace" font-size="10" fill="#141210">s</text><rect x="34" y="28.6" width="4" height="0.6" fill="#141210" opacity="0.20"/><text x="34" y="27.5" textLength="4" lengthAdjust="spacingAndGlyphs" font-family="ui-monospace,monospace" font-size="10" fill="#141210">p</text><rect x="38" y="28.6" width="4" height="0.6" fill="#141210" opacity="0.20"/><text x="38" y="27.5" textLength="4" lengthAdjust="spacingAndGlyphs" font-family="ui-monospace,monospace" font-size="10" fill="#141210">a</text><rect x="42" y="28.6" width="4" height="0.6" fill="#141210" opacity="0.20"/><text x="42" y="27.5" textLength="4" lengthAdjust="spacingAndGlyphs" font-family="ui-monospace,monospace" font-size="10" fill="#141210">c</text><rect x="46" y="28.6" width="4" height="0.6" fill="#141210" opacity="0.20"/><text x="46" y="27.5" textLength="4" lengthAdjust="spacingAndGlyphs" font-family="ui-monospace,monospace" font-size="10" fill="#141210">e</text><rect x="50.60" y="20" width="2.80" height="8" fill="#d8cfba"/><rect x="54" y="28.6" width="4" height="0.6" fill="#141210" opacity="0.20"/><text x="54" y="27.5" textLength="4" lengthAdjust="spacingAndGlyphs" font-family="ui-monospace,monospace" font-size="10" fill="#141210">y</text><rect x="58" y="28.6" width="4" height="0.6" fill="#141210" opacity="0.20"/><text x="58" y="27.5" textLength="4" lengthAdjust="spacingAndGlyphs" font-family="ui-monospace,monospace" font-size="10" fill="#141210">o</text><rect x="62" y="28.6" width="4" height="0.6" fill="#141210" opacity="0.20"/><text x="62" y="27.5" textLength="4" lengthAdjust="spacingAndGlyphs" font-family="ui-monospace,monospace" font-size="10" fill="#141210">u</text><rect x="66.60" y="20" width="2.80" height="8" fill="#d8cfba"/><rect x="70" y="28.6" width="4" height="0.6" fill="#141210" opacity="0.20"/><text x="70" y="27.5" textLength="4" lengthAdjust="spacingAndGlyphs" font-family="ui-monospace,monospace" font-size="10" fill="#141210">d</text><rect x="74" y="28.6" width="4" height="0.6" fill="#141210" opacity="0.20"/><text x="74" y="27.5" textLength="4" lengthAdjust="spacingAndGlyphs" font-family="ui-monospace,monospace" font-size="10" fill="#141210">i</text><rect x="78" y="28.6" width="4" height="0.6" fill="#141210" opacity="0.20"/><text x="78" y="27.5" textLength="4" lengthAdjust="spacingAndGlyphs" font-family="ui-monospace,monospace" font-size="10" fill="#141210">d</text><rect x="82.60" y="20" width="2.80" height="8" fill="#d8cfba"/><rect x="86" y="28.6" width="4" height="0.6" fill="#141210" opacity="0.20"/><text x="86" y="27.5" textLength="4" lengthAdjust="spacingAndGlyphs" font-family="ui-monospace,monospace" font-size="10" fill="#141210">n</text><rect x="90" y="28.6" width="4" height="0.6" fill="#141210" opacity="0.20"/><text x="90" y="27.5" textLength="4" lengthAdjust="spacingAndGlyphs" font-family="ui-monospace,monospace" font-size="10" fill="#141210">o</text><rect x="94" y="28.6" width="4" height="0.6" fill="#141210" opacity="0.20"/><text x="94" y="27.5" textLength="4" lengthAdjust="spacingAndGlyphs" font-family="ui-monospace,monospace" font-size="10" fill="#141210">t</text><rect x="98.60" y="20" width="2.80" height="8" fill="#d8cfba"/><rect x="102" y="28.6" width="4" height="0.6" fill="#141210" opacity="0.20"/><text x="102" y="27.5" textLength="4" lengthAdjust="spacingAndGlyphs" font-family="ui-monospace,monospace" font-size="10" fill="#141210">p</text><rect x="106" y="28.6" width="4" height="0.6" fill="#141210" opacity="0.20"/><text x="106" y="27.5" textLength="4" lengthAdjust="spacingAndGlyphs" font-family="ui-monospace,monospace" font-size="10" fill="#141210">a</text><rect x="110" y="28.6" width="4" height="0.6" fill="#141210" opacity="0.20"/><text x="110" y="27.5" textLength="4" lengthAdjust="spacingAndGlyphs" font-family="ui-monospace,monospace" font-size="10" fill="#141210">y</text><rect x="114.60" y="20" width="2.80" height="8" fill="#d8cfba"/><rect x="118" y="28.6" width="4" height="0.6" fill="#141210" opacity="0.20"/><text x="118" y="27.5" textLength="4" lengthAdjust="spacingAndGlyphs" font-family="ui-monospace,monospace" font-size="10" fill="#141210">f</text><rect x="122" y="28.6" width="4" height="0.6" fill="#141210" opacity="0.20"/><text x="122" y="27.5" textLength="4" lengthAdjust="spacingAndGlyphs" font-family="ui-monospace,monospace" font-size="10" fill="#141210">o</text><rect x="126" y="28.6" width="4" height="0.6" fill="#141210" opacity="0.20"/><text x="126" y="27.5" textLength="4" lengthAdjust="spacingAndGlyphs" font-family="ui-monospace,monospace" font-size="10" fill="#141210">r</text><text x="14" y="225" font-family="ui-monospace,monospace" font-size="6" fill="#141210" opacity="0.55">a-paper</text></svg>